<svg width="368" height="76" viewBox="0 0 368 76" fill="none" xmlns="http://www.w3.org/2000/svg">
<path d="M0.650001 75V0.699997H9.65V30.9C10.95 28.7667 12.9333 26.8667 15.6 25.2C18.2667 23.5 21.6667 22.65 25.8 22.65C29.1667 22.65 32.2167 23.2833 34.95 24.55C37.6833 25.7833 39.85 27.55 41.45 29.85C43.05 32.15 43.85 34.8833 43.85 38.05V75H34.6V39.9C34.6 36.8 33.5333 34.4167 31.4 32.75C29.3 31.05 26.55 30.2 23.15 30.2C20.8167 30.2 18.6333 30.5833 16.6 31.35C14.6 32.0833 12.9667 33.2167 11.7 34.75C10.4667 36.25 9.85 38.1667 9.85 40.5V75H0.650001ZM72.3719 76C67.3385 76 63.2385 74.6833 60.0719 72.05C56.9052 69.4167 55.3219 65.7333 55.3219 61C55.3219 55.2667 57.3219 51 61.3219 48.2C65.3219 45.4 71.7385 43.9 80.5719 43.7L89.8219 43.45V39.4C89.8219 36.2333 88.8552 33.7333 86.9219 31.9C85.0219 30.0333 82.0885 29.1 78.1219 29.1C75.1552 29.1333 72.5385 29.85 70.2719 31.25C68.0052 32.6167 66.5552 34.8333 65.9219 37.9H57.7719C58.0385 32.8667 60.0052 29.0167 63.6719 26.35C67.3385 23.65 72.3052 22.3 78.5719 22.3C85.3052 22.3 90.3385 23.7167 93.6719 26.55C97.0385 29.3833 98.7219 33.5 98.7219 38.9V75H90.8219L90.1719 65.3C88.1385 69.3333 85.5885 72.1333 82.5219 73.7C79.4552 75.2333 76.0719 76 72.3719 76ZM75.1719 69.35C77.4719 69.35 79.7385 68.8 81.9719 67.7C84.2385 66.6 86.1052 65.2 87.5719 63.5C89.0385 61.7667 89.7885 59.9333 89.8219 58V49.15L82.1219 49.3C76.1885 49.4 71.7385 50.2833 68.7719 51.95C65.8052 53.5833 64.3219 56.3 64.3219 60.1C64.3219 63.0333 65.3219 65.3167 67.3219 66.95C69.3552 68.55 71.9719 69.35 75.1719 69.35ZM114.517 75V23.3H123.317V33.25C124.617 29.55 126.667 26.8 129.467 25C132.301 23.2 135.351 22.3 138.617 22.3C139.384 22.3 140.117 22.35 140.817 22.45C141.551 22.55 142.134 22.7167 142.567 22.95V31.9C142.067 31.6667 141.417 31.5167 140.617 31.45C139.851 31.35 139.201 31.3 138.667 31.3C134.567 31.0333 131.051 31.8167 128.117 33.65C125.184 35.4833 123.717 38.55 123.717 42.85V75H114.517ZM158.715 51.3C158.715 54.5667 159.248 57.5333 160.315 60.2C161.415 62.8333 163.065 64.9333 165.265 66.5C167.498 68.0667 170.282 68.85 173.615 68.85C176.915 68.85 179.748 68.0833 182.115 66.55C184.515 65.0167 186.048 62.8 186.715 59.9H195.465C194.832 63.4 193.432 66.35 191.265 68.75C189.098 71.15 186.482 72.9667 183.415 74.2C180.348 75.4 177.148 76 173.815 76C168.982 76 164.732 74.95 161.065 72.85C157.398 70.75 154.532 67.7333 152.465 63.8C150.398 59.8667 149.365 55.15 149.365 49.65C149.365 44.2167 150.298 39.45 152.165 35.35C154.032 31.25 156.732 28.05 160.265 25.75C163.832 23.45 168.115 22.3 173.115 22.3C180.415 22.3 186.015 24.6167 189.915 29.25C193.815 33.85 195.765 40.0667 195.765 47.9V51.3H158.715ZM158.765 45.05H186.865C186.865 40.6167 185.732 36.8833 183.465 33.85C181.198 30.8167 177.732 29.3 173.065 29.3C169.832 29.3 167.148 30.0833 165.015 31.65C162.882 33.1833 161.298 35.1667 160.265 37.6C159.232 40 158.732 42.4833 158.765 45.05ZM237.613 76C231.179 76 225.613 74.5667 220.913 71.7C216.213 68.8 212.579 64.6 210.013 59.1C207.479 53.5667 206.213 46.8667 206.213 39C206.213 31.1 207.496 24.3833 210.063 18.85C212.629 13.2833 216.263 9.03333 220.963 6.1C225.663 3.16666 231.213 1.7 237.613 1.7C244.013 1.7 249.546 3.16666 254.213 6.1C258.879 9 262.479 13.2333 265.013 18.8C267.546 24.3667 268.813 31.1 268.813 39C268.813 46.8333 267.546 53.5167 265.013 59.05C262.513 64.55 258.929 68.75 254.263 71.65C249.596 74.55 244.046 76 237.613 76ZM237.613 67.95C244.313 67.95 249.496 65.6333 253.163 61C256.829 56.3667 258.663 49.0667 258.663 39.1C258.663 29 256.813 21.5833 253.113 16.85C249.413 12.1167 244.246 9.75 237.613 9.75C231.013 9.75 225.829 12.1333 222.063 16.9C218.296 21.6667 216.413 29.0667 216.413 39.1C216.413 49.0667 218.296 56.3667 222.063 61C225.829 65.6333 231.013 67.95 237.613 67.95ZM281.216 75V23.3H290.016V33.25C291.316 29.55 293.366 26.8 296.166 25C299 23.2 302.05 22.3 305.316 22.3C306.083 22.3 306.816 22.35 307.516 22.45C308.25 22.55 308.833 22.7167 309.266 22.95V31.9C308.766 31.6667 308.116 31.5167 307.316 31.45C306.55 31.35 305.9 31.3 305.366 31.3C301.266 31.0333 297.75 31.8167 294.816 33.65C291.883 35.4833 290.416 38.55 290.416 42.85V75H281.216ZM345.536 76C341.503 76 338.286 75.3167 335.886 73.95C333.486 72.5833 331.686 70.9833 330.486 69.15C329.286 67.3167 328.469 65.7333 328.036 64.4L327.036 75H319.986V0.699997H329.286V31.5C329.853 30.3667 330.836 29.0833 332.236 27.65C333.636 26.2167 335.486 24.9667 337.786 23.9C340.119 22.8333 342.936 22.3 346.236 22.3C352.703 22.3 357.836 24.55 361.636 29.05C365.469 33.55 367.386 40.1833 367.386 48.95C367.386 57.0833 365.553 63.6333 361.886 68.6C358.253 73.5333 352.803 76 345.536 76ZM343.886 68.9C348.053 68.9 351.453 67.2833 354.086 64.05C356.753 60.7833 358.086 55.6 358.086 48.5C358.086 42.4667 356.853 37.8 354.386 34.5C351.953 31.1667 348.386 29.5 343.686 29.5C338.553 29.5 334.886 31.1667 332.686 34.5C330.486 37.8 329.353 42.4667 329.286 48.5C329.286 55.7333 330.403 60.95 332.636 64.15C334.903 67.3167 338.653 68.9 343.886 68.9Z" fill="#1890FF"/>
</svg>
