<svg width="135" height="135" viewBox="0 0 135 135" fill="none" xmlns="http://www.w3.org/2000/svg">
<circle cx="67.5" cy="67.5" r="62.5" fill="#1890FF" stroke="#1890FF" stroke-width="10"/>
<path d="M71.1 105C66.5667 105 62.25 104.25 58.15 102.75C54.0833 101.217 50.65 98.95 47.85 95.95C45.0833 92.95 43.4 89.2333 42.8 84.8H52.5C53.4 88.9 55.5833 92.0167 59.05 94.15C62.5167 96.25 66.5167 97.3 71.05 97.3C76.15 97.3 80.3833 96.25 83.75 94.15C87.15 92.0167 88.85 89.1167 88.85 85.45C88.85 82.1833 87.75 79.5833 85.55 77.65C83.3833 75.6833 80.3 74.2333 76.3 73.3L62.1 70C56.7667 68.8333 52.5833 66.75 49.55 63.75C46.55 60.75 45.0167 56.7833 44.95 51.85C44.95 47.6833 46.05 44.0167 48.25 40.85C50.45 37.6833 53.5 35.2167 57.4 33.45C61.3 31.6833 65.75 30.8 70.75 30.8C76.5167 30.8 81.3667 31.7833 85.3 33.75C89.2333 35.7167 92.2 38.3 94.2 41.5C96.2 44.7 97.2167 48.1167 97.25 51.75H87.7C87.4 48.4833 86.4333 45.9 84.8 44C83.2 42.0667 81.1667 40.7 78.7 39.9C76.2667 39.0667 73.6333 38.65 70.8 38.65C68.0667 38.65 65.4667 39.1167 63 40.05C60.5667 40.9833 58.5667 42.3667 57 44.2C55.4667 46 54.7 48.25 54.7 50.95C54.7 53.5833 55.5833 55.7167 57.35 57.35C59.1167 58.95 62.3667 60.3333 67.1 61.5L80.85 64.8C85.65 65.8333 89.3 67.4833 91.8 69.75C94.3 71.9833 96 74.4833 96.9 77.25C97.8333 80.0167 98.3 82.7167 98.3 85.35C98.3 88.9833 97.2167 92.2833 95.05 95.25C92.9167 98.2167 89.8167 100.583 85.75 102.35C81.6833 104.117 76.8 105 71.1 105Z" fill="white"/>
</svg>
