<svg width="135" height="135" viewBox="0 0 135 135" fill="none" xmlns="http://www.w3.org/2000/svg">
<circle cx="67.5" cy="67.5" r="62.5" fill="white" stroke="#1890FF" stroke-width="10"/>
<path d="M67.4086 104C62.8753 104 58.5586 103.25 54.4586 101.75C50.3919 100.217 46.9586 97.95 44.1586 94.95C41.3919 91.95 39.7086 88.2333 39.1086 83.8H48.8086C49.7086 87.9 51.8919 91.0167 55.3586 93.15C58.8253 95.25 62.8253 96.3 67.3586 96.3C72.4586 96.3 76.6919 95.25 80.0586 93.15C83.4586 91.0167 85.1586 88.1167 85.1586 84.45C85.1586 81.1833 84.0586 78.5833 81.8586 76.65C79.6919 74.6833 76.6086 73.2333 72.6086 72.3L58.4086 69C53.0753 67.8333 48.8919 65.75 45.8586 62.75C42.8586 59.75 41.3253 55.7833 41.2586 50.85C41.2586 46.6833 42.3586 43.0167 44.5586 39.85C46.7586 36.6833 49.8086 34.2167 53.7086 32.45C57.6086 30.6833 62.0586 29.8 67.0586 29.8C72.8253 29.8 77.6753 30.7833 81.6086 32.75C85.5419 34.7167 88.5086 37.3 90.5086 40.5C92.5086 43.7 93.5253 47.1167 93.5586 50.75H84.0086C83.7086 47.4833 82.7419 44.9 81.1086 43C79.5086 41.0667 77.4753 39.7 75.0086 38.9C72.5753 38.0667 69.9419 37.65 67.1086 37.65C64.3753 37.65 61.7753 38.1167 59.3086 39.05C56.8753 39.9833 54.8753 41.3667 53.3086 43.2C51.7753 45 51.0086 47.25 51.0086 49.95C51.0086 52.5833 51.8919 54.7167 53.6586 56.35C55.4253 57.95 58.6753 59.3333 63.4086 60.5L77.1586 63.8C81.9586 64.8333 85.6086 66.4833 88.1086 68.75C90.6086 70.9833 92.3086 73.4833 93.2086 76.25C94.1419 79.0167 94.6086 81.7167 94.6086 84.35C94.6086 87.9833 93.5253 91.2833 91.3586 94.25C89.2253 97.2167 86.1253 99.5833 82.0586 101.35C77.9919 103.117 73.1086 104 67.4086 104Z" fill="#1890FF"/>
</svg>
